<svg width="142" height="142" viewBox="0 0 142 142" fill="none" xmlns="http://www.w3.org/2000/svg">
<path d="M21.7299 47.9504C21.7398 46.8408 22.5877 40.3961 23.8095 36.084C24.1994 34.7078 26.6978 31.8371 29.8242 28.0454C31.4462 26.0781 32.9398 25.1056 34.8304 24.0341C36.7145 22.9663 40.1735 22.0932 44.6015 21.1552C48.2729 20.3774 50.9625 20.4377 52.4083 20.2734C54.9517 19.9844 58.1501 13.5348 61.9487 10.9859C65.18 8.81767 68.3745 8.42277 70.3207 8.22982C73.7308 7.89174 78.4425 8.64085 83.1411 9.84919C89.6461 11.522 91.7963 14.0552 92.9441 15.6775C94.7989 18.299 94.5713 20.6771 94.9855 22.34C95.1401 22.9608 99.0478 23.2492 105.002 23.3093C108.358 23.3432 109.903 24.5561 112.836 26.2048C114.073 26.9001 114.731 27.9454 116.425 31.0078C117.85 33.5832 120.164 38.3704 121.469 41.0356C123.396 44.9739 123.277 49.7384 124.994 53.888C127.184 59.1841 131.47 61.642 132.082 62.667C132.719 63.7332 133.458 66.5009 134.264 70.5705C134.956 74.063 133.616 78.0288 131.952 81.5773C130.48 84.7137 125.668 87.6693 123.8 89.1705C122.788 89.9836 122.483 95.3122 121.689 101.194C121.422 103.174 120.396 104.611 118.227 107.272C116.52 109.365 113.233 112.668 110.973 114.81C107.662 117.947 105.426 118.939 103.625 119.633C99.4281 121.252 95.7674 120.983 93.1356 122.53C91.5669 123.453 89.3875 126.055 87.2207 127.836C83.3555 131.013 80.6474 132.303 79.043 132.845C76.8631 133.58 73.7935 133.783 70.4212 133.672C67.2096 133.568 64.4189 132.311 61.8944 131.092C59.1804 129.783 57.0122 127.308 55.0431 125.248C53.5136 123.648 52.6413 121.919 51.7686 120.622C51.2021 119.78 46.4586 120.411 39.8234 121.096C36.2314 121.467 34.853 121.265 33.9617 120.923C32.4978 120.361 29.6904 117.681 26.281 114.304C24.2621 112.305 23.5111 110.743 22.6834 108.477C20.0508 101.267 20.9659 98.7412 21.3815 97.1575C21.8095 95.5269 22.6338 92.0799 22.326 89.8043C22.2092 88.9406 19.2639 87.6022 15.8821 85.3341C13.8466 83.969 12.7693 82.084 11.5373 79.671C10.1634 76.9801 9.49014 73.8635 9.00421 70.9169C8.54491 68.1319 8.785 66.4182 8.96477 65.8181C9.51956 63.9663 12.0737 61.5302 15.8046 56.1424C17.6066 53.5401 19.2182 52.2452 20.2848 51.3627C20.5693 51.2219 20.8594 51.1746 21.1603 51.1089C21.4612 51.0432 21.7642 50.9604 22.0763 50.8751" stroke="black" stroke-width="12.4124" stroke-linecap="round"/>
<path d="M68.7362 53.3797C67.1293 54.043 61.0947 57.634 58.2869 59.6605C57.0883 60.5255 54.8061 65.0675 53.2375 67.6416C52.5874 68.7084 52.5973 70.221 53.2445 73.1817C54.5142 78.9907 56.6182 81.1158 57.9102 82.2909C59.1236 83.3943 61.0821 83.6885 62.7379 84.6001C66.2498 86.5337 69.9984 87.38 71.9777 87.4889C75.6567 87.6913 77.4562 87.3157 80.1268 86.2613C82.0812 85.4898 84.1409 82.6868 86.0984 79.8799C87.77 77.4831 88.5329 72.6483 88.3107 67.0129C88.0452 60.2784 83.2349 57.6604 80.6674 55.4362C79.3831 54.3236 76.7648 53.7127 74.8668 53.1743C74.5077 53.0982 74.1 53.0477 73.3384 53.0216C72.5767 52.9956 71.4735 52.9956 70.3368 52.9956" stroke="black" stroke-width="12.4124" stroke-linecap="round"/>
<path d="M78.1907 55.8474C78.2485 55.3823 79.873 50.5741 81.1686 47.0495C81.54 46.039 82.457 43.7164 83.9047 40.403C85.1105 37.6434 86.0634 35.1365 87.527 32.3189C90.7767 26.0627 91.7131 24.7506 92.7218 23.4338C93.1764 22.9232 93.6213 22.4839 93.9441 21.7287C94.0438 21.1735 94.0134 20.2692 93.9821 19.3374" stroke="black" stroke-width="12.4124" stroke-linecap="round"/>
<path d="M88.9971 64.4974C89.0491 64.4974 89.7802 64.3604 93.4419 63.0093C96.441 61.9026 101.588 59.5081 104.428 58.1976C108.524 56.3073 110.561 55.0269 112.884 54.1895C114.572 53.5812 115.722 52.5709 117.639 51.8989C118.203 51.7423 118.81 51.6053 119.267 51.5099C119.725 51.4144 120.016 51.3646 120.406 51.1567" stroke="black" stroke-width="12.4124" stroke-linecap="round"/>
<path d="M88.7089 78.4536C89.1822 78.912 95.6078 80.7403 99.5226 81.9874C101.816 82.7181 106.283 84.6513 110.1 85.4197C112.692 86.1974 114.728 87.1646 116.981 89.055C117.481 89.5109 117.819 89.8204 118.705 90.3147" stroke="black" stroke-width="12.4124" stroke-linecap="round"/>
<path d="M78.1777 89.4578C78.1763 90.2937 79.9864 96.5899 81.8131 100.987C84.7258 107.997 88.2756 111.121 89.1702 112.59C89.3566 112.9 89.4958 113.158 89.8195 114.095C90.1432 115.032 90.6472 116.64 90.9989 118.424" stroke="black" stroke-width="12.4124" stroke-linecap="round"/>
<path d="M63.2586 87.6694C63.2428 88.1053 61.238 95.1363 59.2898 100.707C56.3497 109.114 55.0041 109.859 53.8762 111.872C53.1963 113.211 52.6314 114.556 52.1445 115.872C52.0254 116.177 51.9184 116.465 51.271 117.022" stroke="black" stroke-width="12.4124" stroke-linecap="round"/>
<path d="M53.755 77.3269C53.2848 77.5119 50.1747 79.3013 45.0807 81.5648C43.1463 82.4244 41.3103 82.7369 38.1058 84.1158C35.7424 85.1328 33.3465 86.3 31.7933 87.128C29.2956 88.0347 26.0156 89.077 25.4567 89.3806C25.1935 89.5432 24.9715 89.723 24.3954 89.9117" stroke="black" stroke-width="12.4124" stroke-linecap="round"/>
<path d="M53.6015 63.2474C52.1749 62.9511 48.7482 62.3385 45.9617 61.6646C43.9554 61.1794 42.5873 59.9704 41.5786 59.1925C40.3428 58.2394 38.575 58.0016 36.7727 57.3773C34.7117 56.6635 33.7996 55.2966 32.4372 54.6461C30.6801 53.807 29.246 53.7934 28.12 53.307C27.0158 52.8293 26.1036 52.4795 25.5178 52.236C25.2202 52.1235 24.922 52.0338 24.3773 51.8647" stroke="black" stroke-width="12.4124" stroke-linecap="round"/>
<path d="M65.162 52.1622C65.0795 51.7147 62.8632 47.3329 59.5119 41.2712C57.5355 37.6962 56.516 34.9377 55.3618 32.4575C53.9829 28.3218 52.588 23.8321 51.8728 22.2322C51.5643 21.6074 51.3662 21.3623 51.162 21.1099" stroke="black" stroke-width="12.4124" stroke-linecap="round"/>
</svg>
