<svg width="142" height="142" viewBox="0 0 142 142" fill="none" xmlns="http://www.w3.org/2000/svg">
<path d="M36.1182 22.7109C34.9532 22.6952 29.8316 22.3021 26.2519 22.2073C23.2483 22.1278 19.6831 24.956 17.1835 26.9595C15.6302 28.2045 15.6833 29.5867 15.5883 31.929C15.5064 33.9493 15.5696 37.6638 15.9763 44.9494C16.383 52.235 17.1859 62.9806 17.3257 71.0533C17.4656 79.126 16.918 84.2003 16.619 89.0817C16.32 93.9631 16.2861 98.498 16.3633 101.568C16.5391 108.56 17.4709 111.461 18.371 114.88C19.9456 120.862 24.7228 125.421 26.2636 126.703C27.8424 128.016 32.8864 127.66 36.8239 127.712C38.2738 127.731 38.6099 127.785 48.4539 127.967C58.2978 128.148 77.6391 128.469 88.2525 128.516C98.8659 128.562 100.165 128.326 101.194 128.098C104.503 127.365 109.059 125.72 112.119 124.404C114.712 123.288 116.84 121.86 119.231 118.274C120.128 116.928 120.165 114.729 120.655 109.967C121 106.623 120.878 101.342 120.722 91.8225C120.565 82.3025 120.209 68.6896 119.439 58.0796C118.669 47.4696 117.496 40.2751 116.807 36.285C116.018 31.7149 115.31 30.2714 114.129 28.3318C111.152 23.4376 108.229 21.2233 106.901 20.4239C105.63 19.6586 102.796 20.6677 97.3388 21.3765C93.8846 21.8252 88.9655 21.7446 81.9332 21.5623C74.9008 21.3801 65.8853 20.9171 59.4375 20.7966C52.9897 20.6761 49.3828 20.9121 46.9897 21.1562C41.9041 22.0852 40.3963 22.5133 39.3956 22.5943C38.8468 22.6273 38.2151 22.6438 36.7118 22.7288" stroke="black" stroke-width="12" stroke-linecap="round"/>
</svg>
