<svg width="142" height="142" viewBox="0 0 142 142" fill="none" xmlns="http://www.w3.org/2000/svg">
<path d="M68.7886 57.9211C67.2081 57.9407 62.2178 58.7129 59.3641 60.696C56.3908 62.7621 55.4771 65.8331 55.1881 67.5425C54.0676 74.1693 56.9002 79.3973 58.2954 81.5617C60.6165 85.1626 66.6929 86.4649 68.497 86.4142C71.2934 86.3358 77.8227 80.2302 81.2243 76.8158C83.1109 74.9221 82.6339 68.1563 80.8146 62.3433C79.6704 58.6874 77.5289 56.678 76.662 55.9009C75.7113 55.0487 74.5732 54.8241 73.7788 54.7671C73.3789 54.7923 72.9858 54.9274 72.607 55.1437C72.2282 55.3599 71.8757 55.6532 70.9903 56.0102" stroke="black" stroke-width="12" stroke-linecap="round"/>
<path d="M73.7513 25.6556C73.7371 25.6556 73.7229 25.6556 69.7682 25.5496C65.8136 25.4436 57.9189 25.2317 53.6657 25.1496C48.2881 25.0459 46.1705 26.086 42.4394 28.4127C38.3807 30.9437 35.9591 33.6213 34.4007 36.333C33.1167 38.5673 31.2096 42.7514 29.8726 45.8942C27.7093 50.9793 26.4186 56.7974 24.9481 62.7235C23.8639 67.0928 23.2225 72.1616 22.7382 78.1502C22.2244 84.5039 22.9633 91.1246 23.8119 95.1681C24.2744 97.3717 26.303 101.308 29.122 106.658C30.5357 109.341 34.0237 112.142 39.0436 115.961C42.3316 118.463 45.5398 119.515 52.7133 120.411C58.1354 121.088 67.282 121.155 72.2744 121.298C77.8538 121.458 81.015 120.194 87.1397 117.149C95.4462 113.019 100.434 109.345 102.175 107.181C108.215 99.6758 108.468 96.464 111.218 91.576C112.837 88.6985 114.133 84.2028 115.254 78.1555C115.826 75.0683 115.634 71.8252 114.945 67.0123C114.256 62.1994 112.878 55.8847 112.073 52.3432C110.9 47.1871 108.044 43.9702 102.965 38.7218C97.036 32.595 92.6724 29.7158 91.4648 29.0834C87.0098 27.1702 83.4506 26.0016 80.331 25.3215C79.3559 25.1921 78.2264 25.1588 76.5687 25.215" stroke="black" stroke-width="12" stroke-linecap="round"/>
<path d="M68.667 7.1416C68.667 7.16902 68.667 7.19644 68.667 12.3522C68.667 17.5081 68.667 27.7914 68.1077 38.5585" stroke="black" stroke-width="12" stroke-linecap="round"/>
<path d="M101.119 70.3567C101.119 70.3714 101.119 70.3861 105.774 70.625C110.428 70.8639 119.737 71.3265 124.756 71.5994C129.776 71.8722 130.225 71.9413 130.647 72.016C131.069 72.0907 131.451 72.1691 131.843 72.2498" stroke="black" stroke-width="12" stroke-linecap="round"/>
<path d="M67.894 105.006V133.839" stroke="black" stroke-width="12" stroke-linecap="round"/>
<path d="M37.8346 69.6608C37.8062 69.6608 30.8213 69.6427 20.0511 69.5685C15.8332 69.4189 15.0152 69.2638 13.6544 69.1748C12.6808 69.1445 11.1327 69.1445 9.53772 69.1445" stroke="black" stroke-width="12" stroke-linecap="round"/>
</svg>
